<svg width="16" height="16" viewBox="0 0 16 16" fill="none" xmlns="http://www.w3.org/2000/svg">
<g clip-path="url(#clip0_3292_2103)">
<path d="M10.6667 14V12.6667C10.6667 11.9594 10.3857 11.2811 9.88561 10.781C9.38551 10.281 8.70723 10 7.99999 10H3.33332C2.62608 10 1.9478 10.281 1.44771 10.781C0.947608 11.2811 0.666656 11.9594 0.666656 12.6667V14M15.3333 7.33333H13.3333M13.3333 7.33333H11.3333M13.3333 7.33333V5.33333M13.3333 7.33333V9.33333M8.33332 4.66667C8.33332 6.13943 7.13942 7.33333 5.66666 7.33333C4.1939 7.33333 2.99999 6.13943 2.99999 4.66667C2.99999 3.19391 4.1939 2 5.66666 2C7.13942 2 8.33332 3.19391 8.33332 4.66667Z" stroke="white" stroke-width="1.5" stroke-linecap="round" stroke-linejoin="round"/>
</g>
<defs>
<clipPath id="clip0_3292_2103">
<rect width="16" height="16" fill="white"/>
</clipPath>
</defs>
</svg>
