<svg width="25" height="24" viewBox="0 0 25 24" fill="none" xmlns="http://www.w3.org/2000/svg">
<path d="M9.2 16.5H8V14.5H10L10.2 15.25C10.35 15.9 9.85 16.5 9.2 16.5ZM19 18C19 18 13.1 14.5 10 14.5V7.5C12.9 7.5 19 4 19 4V18Z" fill="white"/>
<path d="M5 13.5C6.38071 13.5 7.5 12.3807 7.5 11C7.5 9.61929 6.38071 8.5 5 8.5C3.61929 8.5 2.5 9.61929 2.5 11C2.5 12.3807 3.61929 13.5 5 13.5Z" fill="white"/>
<path d="M20.4996 9.5H18.9996V12.5H20.4996C21.3496 12.5 21.9996 11.85 21.9996 11C21.9996 10.15 21.3496 9.5 20.4996 9.5ZM9.79961 20.6C9.34961 20.9 8.54961 21.2 7.49961 21.3C7.19961 21.35 6.89961 21.15 6.79961 20.8L4.59961 13.95C4.59961 13.95 8.99961 10.85 8.99961 14.5C8.99961 17.25 9.74961 18.7 10.0996 19.25C10.3496 19.6 10.3496 20.05 10.0996 20.4C9.99961 20.5 9.89961 20.55 9.79961 20.6Z" fill="white"/>
<path d="M5 14.5H10V7.5H5C4.45 7.5 4 7.95 4 8.5V13.5C4 14.05 4.45 14.5 5 14.5Z" fill="white"/>
<path d="M19.5 19C18.95 19 18.5 18.55 18.5 18V4C18.5 3.45 18.95 3 19.5 3C20.05 3 20.5 3.45 20.5 4V18C20.5 18.55 20.05 19 19.5 19Z" fill="white"/>
</svg>
