<svg width="21" height="22" viewBox="0 0 21 22" fill="none" xmlns="http://www.w3.org/2000/svg">
<path d="M1 11.0664C1 6.58806 1 4.34889 2.39124 2.95765C3.78249 1.56641 6.02166 1.56641 10.5 1.56641C14.9783 1.56641 17.2175 1.56641 18.6088 2.95765C20 4.34889 20 6.58806 20 11.0664C20 15.5447 20 17.7839 18.6088 19.1752C17.2175 20.5664 14.9783 20.5664 10.5 20.5664C6.02166 20.5664 3.78249 20.5664 2.39124 19.1752C1 17.7839 1 15.5447 1 11.0664Z" stroke="#141B34" stroke-width="1.5"/>
<circle cx="15" cy="6.56641" r="1.5" stroke="#141B34" stroke-width="1.5"/>
<path d="M14.5 21.0664C13.8805 18.8413 12.4345 16.8485 10.3765 15.4006C8.15761 13.8394 5.37163 13.013 2.51569 13.0691C2.17658 13.0683 1.83776 13.0791 1.5 13.1015" stroke="#141B34" stroke-width="1.5" stroke-linejoin="round"/>
<path d="M11.5 17.0664C13.2015 15.7398 15.0345 15.0592 16.8862 15.0665C17.9362 15.0654 18.9812 15.288 20 15.7281" stroke="#141B34" stroke-width="1.5" stroke-linejoin="round"/>
</svg>
